<svg xmlns="http://www.w3.org/2000/svg" width="34" height="34" viewBox="0 0 34 34">
  <g id="Group_9275" data-name="Group 9275" transform="translate(-305 -1484)">
    <circle id="Ellipse_100" data-name="Ellipse 100" cx="17" cy="17" r="17" transform="translate(305 1484)" fill="#fff"/>
    <g id="right-arrow-angle" transform="translate(317.334 1493.434)">
      <g id="_x38_" transform="translate(0)">
        <g id="Group_2643" data-name="Group 2643">
          <path id="Path_4706" data-name="Path 4706" d="M173.729,7.427,165.792.194a.669.669,0,0,0-.943,0,.661.661,0,0,0,0,.939l7.458,6.8-7.458,6.8a.661.661,0,0,0,0,.939.669.669,0,0,0,.943,0l7.937-7.233a.654.654,0,0,0,.189-.5A.659.659,0,0,0,173.729,7.427Z" transform="translate(-164.654 0)" fill="#12406f" stroke="#12406f" stroke-width="1"/>
        </g>
      </g>
    </g>
  </g>
</svg>
